<svg width="76" height="76" viewBox="0 0 76 76" fill="none" xmlns="http://www.w3.org/2000/svg">
<path fill-rule="evenodd" clip-rule="evenodd" d="M3.9707 12.2209V43.8114H48.4292C48.8656 37.534 53.8977 32.5034 60.1706 32.0656V12.2209H3.9707ZM17.3256 34.9022C17.3256 35.9249 16.4884 36.7562 15.4702 36.7562C14.4459 36.7562 13.6147 35.9249 13.6147 34.9022C13.6147 33.8795 14.4459 33.0482 15.4702 33.0482C16.4884 33.0467 17.3256 33.8795 17.3256 34.9022ZM26.5332 26.7248C25.5149 26.7248 24.6837 25.8935 24.6837 24.8708C24.6837 23.8481 25.5149 23.0168 26.5332 23.0168C27.5574 23.0168 28.3946 23.8481 28.3946 24.8708C28.3946 25.8935 27.5574 26.7248 26.5332 26.7248ZM39.4577 31.5252C39.4577 32.548 38.6264 33.3792 37.6022 33.3792C36.5839 33.3792 35.7527 32.548 35.7527 31.5252C35.7527 30.5025 36.5824 29.6713 37.6022 29.6713C38.6264 29.6698 39.4577 30.5025 39.4577 31.5252ZM48.6712 22.9871C47.6529 22.9871 46.8216 22.1559 46.8216 21.1331C46.8216 20.1104 47.6529 19.2792 48.6712 19.2792C49.6954 19.2792 50.5266 20.1104 50.5266 21.1331C50.5266 22.1544 49.6954 22.9871 48.6712 22.9871ZM50.1748 44.702C50.1748 38.6977 55.0614 33.8127 61.0627 33.8127C67.07 33.8127 71.9566 38.6977 71.9566 44.702C71.9566 50.7063 67.07 55.5914 61.0627 55.5914C55.0614 55.5914 50.1748 50.7063 50.1748 44.702ZM65.2145 45.5942H61.0627C60.5714 45.5942 60.1721 45.1949 60.1721 44.7035V38.5419C60.1721 38.0506 60.5729 37.6513 61.0627 37.6513C61.5541 37.6513 61.9534 38.0506 61.9534 38.5419V43.8129H65.2145C65.7059 43.8129 66.1052 44.2122 66.1052 44.7035C66.1052 45.1934 65.7059 45.5942 65.2145 45.5942ZM46.2041 58.6448H17.9372V62.1078H46.2041V58.6448ZM35.4988 52.5989H28.6425V56.8635H35.4988V52.5989ZM48.4292 45.5942H3.9707V50.8191H49.9685C49.1016 49.2487 48.5569 47.4763 48.4292 45.5942ZM15.4702 31.2655C16.2094 31.2655 16.907 31.4896 17.483 31.8741L23.327 26.5763C23.0538 26.0672 22.9024 25.4868 22.9024 24.8708C22.9024 22.8669 24.5338 21.2356 26.5332 21.2356C28.5401 21.2356 30.1699 22.8669 30.1699 24.8708C30.1699 25.2374 30.115 25.5892 30.0185 25.9232L35.0446 28.9454C35.7052 28.2923 36.6091 27.8885 37.6022 27.8885C38.3236 27.8885 38.996 28.1008 39.566 28.463L45.4946 22.8936C45.2037 22.3711 45.0404 21.7699 45.0404 21.1316C45.0404 19.1263 46.6717 17.4964 48.6712 17.4964C50.6781 17.4964 52.3079 19.1263 52.3079 21.1316C52.3079 23.1356 50.6766 24.7669 48.6712 24.7669C47.9498 24.7669 47.2833 24.5546 46.7133 24.1909L40.7847 29.7618C41.0756 30.2843 41.2389 30.884 41.2389 31.5238C41.2389 33.5277 39.6076 35.159 37.6022 35.159C35.6013 35.159 33.9714 33.5277 33.9714 31.5238C33.9714 31.1586 34.0263 30.8053 34.1228 30.4713L29.0967 27.4492C28.4362 28.1023 27.5322 28.506 26.5332 28.506C25.794 28.506 25.1023 28.2819 24.5204 27.8959L18.6764 33.1952C18.9495 33.7028 19.1009 34.2847 19.1009 34.9007C19.1009 36.9046 17.4696 38.5359 15.4702 38.5359C13.4633 38.5359 11.8334 36.9046 11.8334 34.9007C11.8334 32.8968 13.4633 31.2655 15.4702 31.2655Z" fill="#22B891"/>
</svg>
